<?xml version="1.0" encoding="utf-8"?>
<!-- Generator: Adobe Illustrator 16.0.0, SVG Export Plug-In . SVG Version: 6.00 Build 0)  -->
<!DOCTYPE svg PUBLIC "-//W3C//DTD SVG 1.1//EN" "http://www.w3.org/Graphics/SVG/1.1/DTD/svg11.dtd">
<svg version="1.1" id="Layer_1" xmlns="http://www.w3.org/2000/svg" xmlns:xlink="http://www.w3.org/1999/xlink" x="0px" y="0px"
	 width="178.429px" height="55.894px" viewBox="0 0 178.429 55.894" enable-background="new 0 0 178.429 55.894"
	 xml:space="preserve">
<path fill="none" stroke="#000000" stroke-miterlimit="10" d="M208-316.713c0,6.628-5.372,12-12,12H34c-6.628,0-12-5.372-12-12
	v-31.894c0-6.627,5.372-12,12-12h162c6.628,0,12,5.373,12,12V-316.713z"/>
<path fill="none" stroke="#000000" stroke-miterlimit="10" d="M822.268,43.894c0,6.628-5.373,12-12,12H708.314
	c-6.628,0-12-5.372-12-12V12c0-6.627,5.372-12,12-12h101.954c6.627,0,12,5.373,12,12V43.894z"/>
<path fill="none" stroke="#000000" stroke-miterlimit="10" d="M1151.532,43.894c0,6.628-5.373,12-12,12H939.501
	c-6.629,0-12-5.372-12-12V12c0-6.627,5.371-12,12-12h200.031c6.627,0,12,5.373,12,12V43.894z"/>
<g>
	<path d="M722.784,19.164v15.529h-1.608V19.164h-5.328v-1.416h12.289v1.416H722.784z"/>
	<path d="M736.416,34.693v-2.063c-0.191,0.432-0.336,0.672-0.456,0.84c-1.056,1.464-2.592,1.488-3.191,1.488
		c-0.192,0-0.769-0.024-1.345-0.217c-1.032-0.336-1.848-1.176-2.184-2.208c-0.24-0.792-0.312-1.872-0.312-3.672v-5.617h1.44v5.929
		c0,1.393,0.023,2.137,0.191,2.784c0.192,0.696,0.696,1.681,2.377,1.681c0.576,0,1.8-0.024,2.712-1.272
		c0.864-1.177,0.768-2.712,0.768-4.104v-5.017h1.417v11.449H736.416z"/>
	<path d="M745.056,34.909c-0.119,0-0.264,0-0.384-0.023c-0.312-0.024-1.176-0.096-1.512-1.008c-0.192-0.505-0.168-1.729-0.168-2.281
		v-7.152h-2.4v-1.2h2.4v-4.872h1.368v4.872h2.52v1.2h-2.52v6.312c0,0.408,0,0.816,0,1.225c-0.024,0.672-0.024,1.68,0.936,1.68
		c0.576,0,1.152-0.408,1.584-0.72v1.44C746.568,34.596,745.992,34.909,745.056,34.909z"/>
	<path d="M758.977,31.212c-0.72,2.304-2.521,3.769-4.944,3.769c-0.792,0-2.616-0.145-3.96-1.92c-0.505-0.696-1.177-1.92-1.177-3.96
		c0-0.504,0.024-1.632,0.528-2.904c1.128-2.904,3.576-3.24,4.704-3.24c1.32,0,2.4,0.384,3.36,1.272
		c1.272,1.224,1.776,2.976,1.801,4.68C759.289,29.292,759.289,30.205,758.977,31.212z M754.104,24.156
		c-0.36,0-1.248,0.048-2.064,0.648c-0.888,0.672-1.632,1.92-1.632,4.296c0,0.431-0.049,2.736,1.512,3.96
		c0.36,0.287,1.032,0.672,2.136,0.672c1.681,0,3.697-1.057,3.721-4.681C757.824,25.332,755.929,24.156,754.104,24.156z"/>
	<path d="M768.264,24.396c-0.288-0.048-0.552-0.072-0.888-0.072c-1.753,0-2.833,1.032-3.097,2.712c-0.096,0.6-0.12,1.368-0.12,2.712
		v4.944h-1.416V23.244h1.416v1.824c0.072-0.192,0.192-0.408,0.312-0.576c0.144-0.216,0.624-0.816,1.344-1.128
		c0.312-0.144,0.816-0.288,1.632-0.288c0.192,0,0.433,0,0.841,0.048L768.264,24.396z"/>
	<path d="M770.855,20.556v-2.184h1.392v2.184H770.855z M770.855,34.693V23.244h1.392v11.449H770.855z"/>
	<path d="M783.888,34.092c-0.456-0.455-0.48-0.936-0.504-1.488c-0.145,0.361-0.336,0.697-0.601,0.984
		c-0.456,0.528-1.656,1.345-3.456,1.345c-1.464,0-2.256-0.505-2.736-0.984c-0.288-0.288-0.864-1.032-0.864-2.136
		c0-0.336,0.048-1.104,0.624-1.801c0.864-1.056,2.28-1.392,3.528-1.752c0.721-0.192,1.44-0.408,2.16-0.552l1.345-0.288v-0.6
		c0-0.432,0.023-0.672-0.12-1.104c-0.24-0.744-0.889-1.536-2.616-1.512c-1.464,0-2.208,0.408-2.593,0.984
		c-0.359,0.552-0.407,1.152-0.432,1.776l-1.561-0.264c0.049-0.24,0.192-1.224,0.673-1.992c0.527-0.792,1.655-1.752,3.815-1.752
		c1.152,0,2.713,0.288,3.504,1.224c0.769,0.912,0.697,2.136,0.697,3.24v3.672c0,1.104-0.024,1.873,0.383,2.209
		c0.361,0.287,0.937,0.264,1.32,0.264v1.128C785.111,34.693,784.367,34.573,783.888,34.092z M783.384,28.645l-0.721,0.192
		c-2.231,0.6-4.152,1.057-4.848,1.561c-0.433,0.312-0.721,0.84-0.721,1.392c0,0.384,0.168,0.72,0.216,0.815
		c0.528,1.057,1.824,1.08,2.089,1.08c1.392,0,3.096-0.84,3.672-2.16c0.216-0.479,0.312-0.959,0.312-2.016V28.645z"/>
	<path d="M789.023,34.693V17.748h1.439v16.945H789.023z"/>
	<path d="M802.176,32.989c-0.457,0.864-1.609,1.992-3.913,1.992c-0.696,0-2.567-0.096-3.841-1.729
		c-0.359-0.455-0.551-0.863-0.768-1.344l1.393-0.48c0.191,0.793,1.056,2.256,3.191,2.256c1.08,0,1.777-0.312,2.113-0.575
		c0.504-0.384,0.815-1.056,0.815-1.656c0-0.36-0.12-0.72-0.312-1.009c-0.36-0.504-0.937-0.791-2.16-1.056
		c-1.129-0.264-2.904-0.456-3.721-1.44c-0.385-0.48-0.624-1.176-0.6-1.8c0-0.36,0.119-1.464,0.983-2.232
		c0.769-0.72,2.112-0.96,3.12-0.96c0.336,0,1.752,0,2.809,0.744c0.889,0.625,1.152,1.464,1.248,1.848l-1.344,0.36
		c-0.264-1.32-1.633-1.704-2.785-1.704c-0.936,0-1.56,0.216-1.871,0.432c-0.097,0.048-0.336,0.24-0.504,0.504
		c-0.24,0.408-0.265,0.816-0.265,0.984c0,1.344,1.416,1.656,2.4,1.848l1.2,0.24c1.031,0.216,1.992,0.6,2.616,1.487
		c0.528,0.721,0.552,1.417,0.552,1.753C802.535,31.692,802.512,32.34,802.176,32.989z"/>
</g>
<g>
	<path d="M957.111,25.452c-0.48,0.624-0.984,0.888-1.248,1.032c-1.199,0.576-2.592,0.576-5.28,0.576h-3.744v7.633h-1.536V17.748
		h5.809c0.984,0,1.968-0.024,2.977,0.072c1.176,0.096,2.088,0.36,2.88,1.272c0.456,0.528,1.104,1.584,1.104,3.289
		C958.072,23.46,957.783,24.564,957.111,25.452z M956.031,20.436c-0.792-1.296-1.992-1.296-3.312-1.32
		c-0.6,0-1.199-0.024-1.775-0.024h-4.104v6.553h3.624c0.744,0,1.465-0.024,2.184-0.024c1.201-0.024,2.354-0.072,3.169-1.08
		c0.336-0.408,0.696-1.008,0.696-2.184C956.512,22.068,956.512,21.228,956.031,20.436z"/>
	<path d="M969.304,31.212c-0.72,2.304-2.521,3.769-4.944,3.769c-0.793,0-2.617-0.145-3.961-1.92c-0.504-0.696-1.176-1.92-1.176-3.96
		c0-0.504,0.023-1.632,0.527-2.904c1.129-2.904,3.577-3.24,4.705-3.24c1.32,0,2.4,0.384,3.36,1.272
		c1.272,1.224,1.776,2.976,1.8,4.68C969.615,29.292,969.615,30.205,969.304,31.212z M964.432,24.156
		c-0.361,0-1.248,0.048-2.064,0.648c-0.889,0.672-1.633,1.92-1.633,4.296c0,0.431-0.048,2.736,1.513,3.96
		c0.36,0.287,1.032,0.672,2.136,0.672c1.68,0,3.697-1.057,3.721-4.681C968.151,25.332,966.256,24.156,964.432,24.156z"/>
	<path d="M982.479,30.973c-0.216,0.84-1.224,3.984-4.561,3.984c-1.8,0-2.761-0.984-3.144-1.585
		c-0.121-0.168-0.168-0.264-0.312-0.601v7.994h-1.393V23.244h1.393v1.873c0.168-0.384,0.288-0.576,0.432-0.744
		c0.408-0.552,1.344-1.368,3.024-1.368c1.224,0,1.944,0.336,2.376,0.6c1.752,1.104,2.425,3.48,2.425,5.4
		C982.72,29.388,982.695,30.061,982.479,30.973z M980.943,26.796c-0.696-2.185-2.376-2.497-3.264-2.497
		c-0.505,0-1.057,0.12-1.488,0.36c-0.865,0.48-1.369,1.464-1.561,2.376c-0.12,0.6-0.145,1.176-0.168,1.776
		c-0.049,1.44,0.023,3.096,1.248,4.104c0.768,0.648,1.607,0.672,1.992,0.672c2.641,0,3.553-2.568,3.553-4.776
		C981.256,28.452,981.231,27.684,980.943,26.796z"/>
	<path d="M993.663,34.693v-2.063c-0.192,0.432-0.336,0.672-0.456,0.84c-1.056,1.464-2.592,1.488-3.191,1.488
		c-0.193,0-0.769-0.024-1.345-0.217c-1.032-0.336-1.849-1.176-2.185-2.208c-0.24-0.792-0.312-1.872-0.312-3.672v-5.617h1.44v5.929
		c0,1.393,0.023,2.137,0.191,2.784c0.192,0.696,0.696,1.681,2.377,1.681c0.576,0,1.8-0.024,2.711-1.272
		c0.865-1.177,0.769-2.712,0.769-4.104v-5.017h1.417v11.449H993.663z"/>
	<path d="M999.255,34.693V17.748h1.44v16.945H999.255z"/>
	<path d="M1012.311,34.092c-0.455-0.455-0.479-0.936-0.504-1.488c-0.144,0.361-0.336,0.697-0.6,0.984
		c-0.456,0.528-1.656,1.345-3.457,1.345c-1.463,0-2.256-0.505-2.735-0.984c-0.288-0.288-0.864-1.032-0.864-2.136
		c0-0.336,0.048-1.104,0.624-1.801c0.864-1.056,2.28-1.392,3.528-1.752c0.721-0.192,1.439-0.408,2.16-0.552l1.344-0.288v-0.6
		c0-0.432,0.024-0.672-0.119-1.104c-0.24-0.744-0.889-1.536-2.617-1.512c-1.463,0-2.207,0.408-2.592,0.984
		c-0.359,0.552-0.408,1.152-0.432,1.776l-1.561-0.264c0.049-0.24,0.191-1.224,0.672-1.992c0.528-0.792,1.656-1.752,3.816-1.752
		c1.152,0,2.713,0.288,3.504,1.224c0.769,0.912,0.697,2.136,0.697,3.24v3.672c0,1.104-0.024,1.873,0.383,2.209
		c0.361,0.287,0.937,0.264,1.32,0.264v1.128C1013.535,34.693,1012.791,34.573,1012.311,34.092z M1011.807,28.645l-0.72,0.192
		c-2.231,0.6-4.152,1.057-4.849,1.561c-0.432,0.312-0.72,0.84-0.72,1.392c0,0.384,0.168,0.72,0.216,0.815
		c0.528,1.057,1.824,1.08,2.088,1.08c1.393,0,3.097-0.84,3.673-2.16c0.216-0.479,0.312-0.959,0.312-2.016V28.645z"/>
	<path d="M1022.991,24.396c-0.288-0.048-0.552-0.072-0.888-0.072c-1.753,0-2.833,1.032-3.097,2.712
		c-0.097,0.6-0.12,1.368-0.12,2.712v4.944h-1.416V23.244h1.416v1.824c0.072-0.192,0.191-0.408,0.312-0.576
		c0.144-0.216,0.623-0.816,1.344-1.128c0.312-0.144,0.816-0.288,1.632-0.288c0.192,0,0.433,0,0.841,0.048L1022.991,24.396z"/>
	<path d="M1046.247,35.077l-2.136-1.968c-0.793,0.792-2.257,2.017-4.992,2.017c-2.425,0-3.793-0.912-4.537-1.561
		c-2.736-2.353-2.809-6.265-2.809-7.177c0-3.457,1.248-5.665,2.16-6.721c0.192-0.216,0.648-0.72,1.297-1.152
		c1.199-0.84,2.568-1.2,4.032-1.2c1.704,0,3.192,0.456,4.44,1.584c2.664,2.4,2.712,6.192,2.712,7.129
		c0,0.984-0.048,3.432-1.44,5.857l2.281,2.111L1046.247,35.077z M1043.415,20.964c-0.216-0.336-0.864-1.248-1.921-1.776
		c-0.408-0.192-1.176-0.48-2.304-0.48c-1.345,0-2.185,0.384-2.664,0.672c-2.304,1.392-3.072,4.489-3.072,6.961
		c0,0.6,0.048,3.191,1.344,5.16c0.288,0.432,0.576,0.744,0.96,1.08c0.528,0.48,1.584,1.176,3.361,1.176
		c0.863,0,2.832-0.144,4.224-2.111c1.032-1.465,1.416-3.505,1.44-5.257C1044.783,25.716,1044.783,23.028,1043.415,20.964z"/>
	<path d="M1057.454,34.693v-2.063c-0.192,0.432-0.336,0.672-0.456,0.84c-1.056,1.464-2.592,1.488-3.191,1.488
		c-0.193,0-0.769-0.024-1.345-0.217c-1.032-0.336-1.849-1.176-2.185-2.208c-0.24-0.792-0.312-1.872-0.312-3.672v-5.617h1.44v5.929
		c0,1.393,0.023,2.137,0.191,2.784c0.192,0.696,0.696,1.681,2.377,1.681c0.576,0,1.8-0.024,2.711-1.272
		c0.865-1.177,0.769-2.712,0.769-4.104v-5.017h1.417v11.449H1057.454z"/>
	<path d="M1071.879,33.157c-0.625,0.744-1.752,1.824-4.081,1.824c-0.407,0-1.56-0.023-2.64-0.6
		c-2.736-1.416-2.832-4.777-2.832-5.521c0-0.384,0-1.32,0.359-2.328c0.744-2.16,2.616-3.576,4.92-3.576
		c0.697,0,2.354,0.144,3.673,1.632c0.912,1.032,1.488,2.64,1.488,4.032v0.36h-8.881c-0.024,0.936,0.097,1.512,0.216,1.92
		c0.24,0.912,1.057,2.809,3.672,2.783c1.009,0,2.593-0.239,3.673-2.399l1.32,0.384C1072.646,31.909,1072.358,32.557,1071.879,33.157
		z M1067.582,24.228c-1.992,0-2.928,1.368-3.24,1.992c-0.216,0.48-0.359,1.08-0.432,1.584h7.225
		C1070.799,24.852,1068.83,24.228,1067.582,24.228z"/>
	<path d="M1083.711,32.989c-0.457,0.864-1.609,1.992-3.913,1.992c-0.696,0-2.567-0.096-3.841-1.729
		c-0.359-0.455-0.551-0.863-0.768-1.344l1.393-0.48c0.191,0.793,1.056,2.256,3.191,2.256c1.08,0,1.777-0.312,2.113-0.575
		c0.504-0.384,0.815-1.056,0.815-1.656c0-0.36-0.12-0.72-0.312-1.009c-0.36-0.504-0.937-0.791-2.16-1.056
		c-1.129-0.264-2.904-0.456-3.721-1.44c-0.385-0.48-0.624-1.176-0.6-1.8c0-0.36,0.119-1.464,0.983-2.232
		c0.769-0.72,2.112-0.96,3.12-0.96c0.336,0,1.752,0,2.809,0.744c0.889,0.625,1.152,1.464,1.248,1.848l-1.344,0.36
		c-0.264-1.32-1.633-1.704-2.785-1.704c-0.936,0-1.56,0.216-1.871,0.432c-0.097,0.048-0.336,0.24-0.504,0.504
		c-0.24,0.408-0.265,0.816-0.265,0.984c0,1.344,1.416,1.656,2.4,1.848l1.2,0.24c1.031,0.216,1.992,0.6,2.616,1.487
		c0.528,0.721,0.552,1.417,0.552,1.753C1084.07,31.692,1084.047,32.34,1083.711,32.989z"/>
	<path d="M1090.789,34.909c-0.119,0-0.264,0-0.383-0.023c-0.312-0.024-1.177-0.096-1.513-1.008
		c-0.192-0.505-0.168-1.729-0.168-2.281v-7.152h-2.4v-1.2h2.4v-4.872h1.368v4.872h2.52v1.2h-2.52v6.312c0,0.408,0,0.816,0,1.225
		c-0.023,0.672-0.023,1.68,0.936,1.68c0.576,0,1.152-0.408,1.584-0.72v1.44C1092.302,34.596,1091.726,34.909,1090.789,34.909z"/>
	<path d="M1095.373,20.556v-2.184h1.393v2.184H1095.373z M1095.373,34.693V23.244h1.393v11.449H1095.373z"/>
	<path d="M1110.302,31.212c-0.72,2.304-2.521,3.769-4.944,3.769c-0.792,0-2.616-0.145-3.96-1.92c-0.505-0.696-1.177-1.92-1.177-3.96
		c0-0.504,0.024-1.632,0.528-2.904c1.128-2.904,3.577-3.24,4.704-3.24c1.32,0,2.4,0.384,3.361,1.272
		c1.271,1.224,1.775,2.976,1.8,4.68C1110.614,29.292,1110.614,30.205,1110.302,31.212z M1105.43,24.156
		c-0.36,0-1.248,0.048-2.064,0.648c-0.888,0.672-1.632,1.92-1.632,4.296c0,0.431-0.048,2.736,1.513,3.96
		c0.359,0.287,1.031,0.672,2.135,0.672c1.681,0,3.697-1.057,3.721-4.681C1109.15,25.332,1107.254,24.156,1105.43,24.156z"/>
	<path d="M1121.557,34.693V28.74c0-1.536,0-2.448-0.264-3.12c-0.24-0.6-0.647-0.864-0.863-0.984c-0.648-0.384-1.297-0.36-1.561-0.36
		s-0.889,0.024-1.512,0.312c-0.84,0.408-1.513,1.32-1.729,2.184c-0.12,0.552-0.145,1.536-0.145,2.904v5.017h-1.416V23.244h1.416
		v2.041c0.097-0.288,0.265-0.744,0.816-1.272c0.456-0.432,1.272-1.008,2.784-1.008c2.136,0,3.12,1.176,3.48,1.968
		c0.433,0.912,0.408,1.824,0.408,3.768v5.953H1121.557z"/>
	<path d="M1134.709,32.989c-0.455,0.864-1.607,1.992-3.912,1.992c-0.695,0-2.568-0.096-3.84-1.729
		c-0.36-0.455-0.553-0.863-0.769-1.344l1.392-0.48c0.193,0.793,1.057,2.256,3.193,2.256c1.08,0,1.775-0.312,2.111-0.575
		c0.504-0.384,0.816-1.056,0.816-1.656c0-0.36-0.12-0.72-0.312-1.009c-0.359-0.504-0.936-0.791-2.16-1.056
		c-1.127-0.264-2.904-0.456-3.72-1.44c-0.384-0.48-0.624-1.176-0.601-1.8c0-0.36,0.121-1.464,0.984-2.232
		c0.768-0.72,2.112-0.96,3.121-0.96c0.336,0,1.752,0,2.808,0.744c0.888,0.625,1.152,1.464,1.248,1.848l-1.345,0.36
		c-0.264-1.32-1.631-1.704-2.783-1.704c-0.937,0-1.561,0.216-1.873,0.432c-0.096,0.048-0.336,0.24-0.504,0.504
		c-0.24,0.408-0.264,0.816-0.264,0.984c0,1.344,1.416,1.656,2.4,1.848l1.2,0.24c1.032,0.216,1.991,0.6,2.616,1.487
		c0.527,0.721,0.552,1.417,0.552,1.753C1135.069,31.692,1135.045,32.34,1134.709,32.989z"/>
</g>
<g>
	<path d="M54.867-325.914l-1.944-5.112h-7.584l-1.944,5.112h-1.776l6.913-16.945h1.344l6.745,16.945H54.867z M49.178-340.987
		l-3.312,8.665h6.577L49.178-340.987z"/>
	<path d="M66.818-327.618c-0.456,0.864-1.608,1.992-3.913,1.992c-0.696,0-2.568-0.096-3.84-1.729
		c-0.36-0.455-0.552-0.863-0.768-1.344l1.392-0.48c0.192,0.793,1.056,2.256,3.192,2.256c1.08,0,1.776-0.312,2.112-0.575
		c0.504-0.384,0.816-1.056,0.816-1.656c0-0.36-0.12-0.72-0.312-1.009c-0.36-0.504-0.936-0.791-2.16-1.056
		c-1.128-0.264-2.904-0.456-3.72-1.44c-0.384-0.48-0.624-1.176-0.6-1.8c0-0.36,0.12-1.464,0.984-2.232
		c0.768-0.72,2.112-0.96,3.121-0.96c0.336,0,1.752,0,2.808,0.744c0.888,0.625,1.152,1.464,1.248,1.848l-1.344,0.36
		c-0.264-1.32-1.632-1.704-2.784-1.704c-0.936,0-1.56,0.216-1.872,0.432c-0.096,0.048-0.336,0.24-0.504,0.504
		c-0.24,0.408-0.264,0.816-0.264,0.984c0,1.344,1.416,1.656,2.4,1.848l1.2,0.24c1.032,0.216,1.992,0.6,2.616,1.487
		c0.528,0.721,0.552,1.417,0.552,1.753C67.178-328.915,67.154-328.267,66.818-327.618z"/>
	<path d="M79.082-325.914l-4.368-5.929l-2.448,2.328v3.601h-1.392v-16.945h1.392v11.521l6.433-6.025h1.776l-4.776,4.561l5.112,6.889
		H79.082z"/>
	<path d="M97.706-326.515c-0.456-0.455-0.48-0.936-0.504-1.488c-0.144,0.361-0.336,0.697-0.6,0.984
		c-0.456,0.528-1.656,1.345-3.457,1.345c-1.464,0-2.256-0.505-2.736-0.984c-0.288-0.288-0.864-1.032-0.864-2.136
		c0-0.336,0.048-1.104,0.624-1.801c0.864-1.056,2.28-1.392,3.528-1.752c0.72-0.192,1.44-0.408,2.16-0.552l1.344-0.288v-0.6
		c0-0.432,0.024-0.672-0.12-1.104c-0.24-0.744-0.888-1.536-2.616-1.512c-1.464,0-2.208,0.408-2.592,0.984
		c-0.36,0.552-0.408,1.152-0.432,1.776l-1.56-0.264c0.048-0.24,0.192-1.224,0.672-1.992c0.528-0.792,1.656-1.752,3.816-1.752
		c1.152,0,2.712,0.288,3.504,1.224c0.768,0.912,0.696,2.136,0.696,3.24v3.672c0,1.104-0.024,1.873,0.384,2.209
		c0.36,0.287,0.936,0.264,1.32,0.264v1.128C98.93-325.914,98.186-326.034,97.706-326.515z M97.202-331.962l-0.72,0.192
		c-2.232,0.6-4.152,1.057-4.848,1.561c-0.432,0.312-0.72,0.84-0.72,1.392c0,0.384,0.168,0.72,0.216,0.815
		c0.528,1.057,1.824,1.08,2.088,1.08c1.392,0,3.096-0.84,3.672-2.16c0.216-0.479,0.312-0.959,0.312-2.016V-331.962z"/>
	<path d="M110.354-325.914v-5.953c0-1.536,0-2.448-0.264-3.12c-0.24-0.6-0.648-0.864-0.864-0.984c-0.648-0.384-1.296-0.36-1.56-0.36
		s-0.888,0.024-1.512,0.312c-0.84,0.408-1.512,1.32-1.728,2.184c-0.12,0.552-0.144,1.536-0.144,2.904v5.017h-1.416v-11.449h1.416
		v2.041c0.096-0.288,0.264-0.744,0.816-1.272c0.456-0.432,1.272-1.008,2.784-1.008c2.136,0,3.121,1.176,3.48,1.968
		c0.432,0.912,0.408,1.824,0.408,3.768v5.953H110.354z"/>
	<path d="M122.905-325.914v-16.945h11.065v1.464h-9.457v6.049h8.569v1.488h-8.569v6.457h10.057v1.488H122.905z"/>
	<path d="M144.914-325.914l-3.36-4.872l-3.48,4.872h-1.512l4.201-5.953l-3.865-5.497h1.656l3,4.369l3.096-4.369h1.512l-3.84,5.497
		l4.2,5.953H144.914z"/>
	<path d="M158.857-329.634c-0.216,0.84-1.224,3.984-4.561,3.984c-1.8,0-2.76-0.984-3.144-1.585c-0.12-0.168-0.168-0.264-0.312-0.601
		v7.994h-1.392v-17.522h1.392v1.873c0.168-0.384,0.288-0.576,0.432-0.744c0.408-0.552,1.344-1.368,3.024-1.368
		c1.224,0,1.944,0.336,2.376,0.6c1.752,1.104,2.424,3.48,2.424,5.4C159.098-331.219,159.073-330.546,158.857-329.634z
		 M157.321-333.811c-0.696-2.185-2.376-2.497-3.264-2.497c-0.504,0-1.056,0.12-1.488,0.36c-0.864,0.48-1.368,1.464-1.56,2.376
		c-0.12,0.6-0.144,1.176-0.168,1.776c-0.048,1.44,0.024,3.096,1.248,4.104c0.768,0.648,1.608,0.672,1.992,0.672
		c2.64,0,3.552-2.568,3.552-4.776C157.633-332.155,157.609-332.923,157.321-333.811z"/>
	<path d="M171.361-327.45c-0.624,0.744-1.752,1.824-4.081,1.824c-0.408,0-1.56-0.023-2.64-0.6c-2.736-1.416-2.832-4.777-2.832-5.521
		c0-0.384,0-1.32,0.36-2.328c0.744-2.16,2.616-3.576,4.92-3.576c0.696,0,2.353,0.144,3.672,1.632
		c0.912,1.032,1.488,2.64,1.488,4.032v0.36h-8.881c-0.024,0.936,0.096,1.512,0.216,1.92c0.24,0.912,1.056,2.809,3.672,2.783
		c1.008,0,2.592-0.239,3.672-2.399l1.32,0.384C172.129-328.698,171.841-328.05,171.361-327.45z M167.065-336.379
		c-1.992,0-2.928,1.368-3.24,1.992c-0.216,0.48-0.36,1.08-0.432,1.584h7.225C170.281-335.755,168.313-336.379,167.065-336.379z"/>
	<path d="M181.177-336.211c-0.288-0.048-0.552-0.072-0.888-0.072c-1.752,0-2.833,1.032-3.096,2.712
		c-0.096,0.6-0.12,1.368-0.12,2.712v4.944h-1.416v-11.449h1.416v1.824c0.072-0.192,0.192-0.408,0.312-0.576
		c0.144-0.216,0.624-0.816,1.344-1.128c0.312-0.144,0.816-0.288,1.632-0.288c0.192,0,0.432,0,0.84,0.048L181.177-336.211z"/>
	<path d="M186.792-325.698c-0.12,0-0.264,0-0.384-0.023c-0.312-0.024-1.176-0.096-1.512-1.008c-0.192-0.505-0.168-1.729-0.168-2.281
		v-7.152h-2.4v-1.2h2.4v-4.872h1.368v4.872h2.52v1.2h-2.52v6.312c0,0.408,0,0.816,0,1.225c-0.024,0.672-0.024,1.68,0.936,1.68
		c0.576,0,1.152-0.408,1.584-0.72v1.44C188.304-326.011,187.728-325.698,186.792-325.698z"/>
</g>
<text transform="matrix(1 0 0 1 13.8745 37.3638)" fill="#FFFFFF" stroke="#FFFFFF" stroke-width="2" stroke-linecap="round" stroke-linejoin="round" stroke-miterlimit="10" font-family="'Calibri-Italic'" font-size="50.9781" letter-spacing="-1">mentex</text>
</svg>
