<?xml version="1.0" encoding="utf-8"?>
<!-- Generator: Adobe Illustrator 16.0.0, SVG Export Plug-In . SVG Version: 6.00 Build 0)  -->
<!DOCTYPE svg PUBLIC "-//W3C//DTD SVG 1.1//EN" "http://www.w3.org/Graphics/SVG/1.1/DTD/svg11.dtd">
<svg version="1.1" id="Layer_1" xmlns="http://www.w3.org/2000/svg" xmlns:xlink="http://www.w3.org/1999/xlink" x="0px" y="0px"
	 width="104.001px" height="59.261px" viewBox="0 0 104.001 59.261" enable-background="new 0 0 104.001 59.261"
	 xml:space="preserve">
<path fill="none" stroke="#000000" stroke-miterlimit="10" d="M-225.499-134.105c0,6.628-5.372,12-12,12h-162
	c-6.628,0-12-5.372-12-12V-166c0-6.627,5.372-12,12-12h162c6.628,0,12,5.373,12,12V-134.105z"/>
<path fill="none" stroke="#000000" stroke-miterlimit="10" d="M388.769,226.501c0,6.628-5.373,12-12,12H274.815
	c-6.628,0-12-5.372-12-12v-31.894c0-6.627,5.372-12,12-12h101.954c6.627,0,12,5.373,12,12V226.501z"/>
<path fill="none" stroke="#000000" stroke-miterlimit="10" d="M718.033,226.501c0,6.628-5.373,12-12,12H506.002
	c-6.629,0-12-5.372-12-12v-31.894c0-6.627,5.371-12,12-12h200.031c6.627,0,12,5.373,12,12V226.501z"/>
<g>
	<path d="M289.285,201.771V217.3h-1.608v-15.529h-5.328v-1.416h12.289v1.416H289.285z"/>
	<path d="M302.917,217.3v-2.063c-0.191,0.432-0.336,0.672-0.456,0.84c-1.056,1.464-2.592,1.488-3.191,1.488
		c-0.192,0-0.769-0.024-1.345-0.217c-1.032-0.336-1.848-1.176-2.184-2.208c-0.24-0.792-0.312-1.872-0.312-3.672v-5.617h1.44v5.929
		c0,1.393,0.023,2.137,0.191,2.784c0.192,0.696,0.696,1.681,2.377,1.681c0.576,0,1.8-0.024,2.712-1.272
		c0.864-1.177,0.768-2.712,0.768-4.104v-5.017h1.417V217.3H302.917z"/>
	<path d="M311.557,217.516c-0.119,0-0.264,0-0.384-0.023c-0.312-0.024-1.176-0.096-1.512-1.008
		c-0.192-0.505-0.168-1.729-0.168-2.281v-7.152h-2.4v-1.2h2.4v-4.872h1.368v4.872h2.52v1.2h-2.52v6.312c0,0.408,0,0.816,0,1.225
		c-0.024,0.672-0.024,1.68,0.936,1.68c0.576,0,1.152-0.408,1.584-0.72v1.44C313.069,217.204,312.493,217.516,311.557,217.516z"/>
	<path d="M325.478,213.82c-0.72,2.304-2.521,3.769-4.944,3.769c-0.792,0-2.616-0.145-3.96-1.92c-0.505-0.696-1.177-1.92-1.177-3.96
		c0-0.504,0.024-1.632,0.528-2.904c1.128-2.904,3.576-3.24,4.704-3.24c1.32,0,2.4,0.384,3.36,1.272
		c1.272,1.224,1.776,2.976,1.801,4.68C325.79,211.9,325.79,212.812,325.478,213.82z M320.605,206.763
		c-0.36,0-1.248,0.048-2.064,0.648c-0.888,0.672-1.632,1.92-1.632,4.296c0,0.431-0.049,2.736,1.512,3.96
		c0.36,0.287,1.032,0.672,2.136,0.672c1.681,0,3.697-1.057,3.721-4.681C324.325,207.939,322.43,206.763,320.605,206.763z"/>
	<path d="M334.765,207.003c-0.288-0.048-0.552-0.072-0.888-0.072c-1.753,0-2.833,1.032-3.097,2.712
		c-0.096,0.6-0.12,1.368-0.12,2.712v4.944h-1.416v-11.449h1.416v1.824c0.072-0.192,0.192-0.408,0.312-0.576
		c0.144-0.216,0.624-0.816,1.344-1.128c0.312-0.144,0.816-0.288,1.632-0.288c0.192,0,0.433,0,0.841,0.048L334.765,207.003z"/>
	<path d="M337.356,203.163v-2.184h1.392v2.184H337.356z M337.356,217.3v-11.449h1.392V217.3H337.356z"/>
	<path d="M350.389,216.7c-0.456-0.455-0.48-0.936-0.504-1.488c-0.145,0.361-0.336,0.697-0.601,0.984
		c-0.456,0.528-1.656,1.345-3.456,1.345c-1.464,0-2.256-0.505-2.736-0.984c-0.288-0.288-0.864-1.032-0.864-2.136
		c0-0.336,0.048-1.104,0.624-1.801c0.864-1.056,2.28-1.392,3.528-1.752c0.721-0.192,1.44-0.408,2.16-0.552l1.345-0.288v-0.6
		c0-0.432,0.023-0.672-0.12-1.104c-0.24-0.744-0.889-1.536-2.616-1.512c-1.464,0-2.208,0.408-2.593,0.984
		c-0.359,0.552-0.407,1.152-0.432,1.776l-1.561-0.264c0.049-0.24,0.192-1.224,0.673-1.992c0.527-0.792,1.655-1.752,3.815-1.752
		c1.152,0,2.713,0.288,3.504,1.224c0.769,0.912,0.697,2.136,0.697,3.24v3.672c0,1.104-0.024,1.873,0.383,2.209
		c0.361,0.287,0.937,0.264,1.32,0.264v1.128C351.612,217.3,350.868,217.18,350.389,216.7z M349.885,211.252l-0.721,0.192
		c-2.231,0.6-4.152,1.057-4.848,1.561c-0.433,0.312-0.721,0.84-0.721,1.392c0,0.384,0.168,0.72,0.216,0.815
		c0.528,1.057,1.824,1.08,2.089,1.08c1.392,0,3.096-0.84,3.672-2.16c0.216-0.479,0.312-0.959,0.312-2.016V211.252z"/>
	<path d="M355.524,217.3v-16.945h1.439V217.3H355.524z"/>
	<path d="M368.677,215.596c-0.457,0.864-1.609,1.992-3.913,1.992c-0.696,0-2.567-0.096-3.841-1.729
		c-0.359-0.455-0.551-0.863-0.768-1.344l1.393-0.48c0.191,0.793,1.056,2.256,3.191,2.256c1.08,0,1.777-0.312,2.113-0.575
		c0.504-0.384,0.815-1.056,0.815-1.656c0-0.36-0.12-0.72-0.312-1.009c-0.36-0.504-0.937-0.791-2.16-1.056
		c-1.129-0.264-2.904-0.456-3.721-1.44c-0.385-0.48-0.624-1.176-0.6-1.8c0-0.36,0.119-1.464,0.983-2.232
		c0.769-0.72,2.112-0.96,3.12-0.96c0.336,0,1.752,0,2.809,0.744c0.889,0.625,1.152,1.464,1.248,1.848l-1.344,0.36
		c-0.264-1.32-1.633-1.704-2.785-1.704c-0.936,0-1.56,0.216-1.871,0.432c-0.097,0.048-0.336,0.24-0.504,0.504
		c-0.24,0.408-0.265,0.816-0.265,0.984c0,1.344,1.416,1.656,2.4,1.848l1.2,0.24c1.031,0.216,1.992,0.6,2.616,1.487
		c0.528,0.721,0.552,1.417,0.552,1.753C369.036,214.299,369.013,214.948,368.677,215.596z"/>
</g>
<g>
	<path d="M523.612,208.06c-0.48,0.624-0.984,0.888-1.248,1.032c-1.199,0.576-2.592,0.576-5.28,0.576h-3.744v7.633h-1.536v-16.945
		h5.809c0.984,0,1.968-0.024,2.977,0.072c1.176,0.096,2.088,0.36,2.88,1.272c0.456,0.528,1.104,1.584,1.104,3.289
		C524.573,206.067,524.284,207.171,523.612,208.06z M522.532,203.043c-0.792-1.296-1.992-1.296-3.312-1.32
		c-0.6,0-1.199-0.024-1.775-0.024h-4.104v6.553h3.624c0.744,0,1.465-0.024,2.184-0.024c1.201-0.024,2.354-0.072,3.169-1.08
		c0.336-0.408,0.696-1.008,0.696-2.184C523.013,204.675,523.013,203.835,522.532,203.043z"/>
	<path d="M535.805,213.82c-0.72,2.304-2.521,3.769-4.944,3.769c-0.793,0-2.617-0.145-3.961-1.92c-0.504-0.696-1.176-1.92-1.176-3.96
		c0-0.504,0.023-1.632,0.527-2.904c1.129-2.904,3.577-3.24,4.705-3.24c1.32,0,2.4,0.384,3.36,1.272
		c1.272,1.224,1.776,2.976,1.8,4.68C536.116,211.9,536.116,212.812,535.805,213.82z M530.933,206.763
		c-0.361,0-1.248,0.048-2.064,0.648c-0.889,0.672-1.633,1.92-1.633,4.296c0,0.431-0.048,2.736,1.513,3.96
		c0.36,0.287,1.032,0.672,2.136,0.672c1.68,0,3.697-1.057,3.721-4.681C534.652,207.939,532.757,206.763,530.933,206.763z"/>
	<path d="M548.98,213.581c-0.216,0.84-1.224,3.984-4.561,3.984c-1.8,0-2.761-0.984-3.144-1.585
		c-0.121-0.168-0.168-0.264-0.312-0.601v7.994h-1.393v-17.522h1.393v1.873c0.168-0.384,0.288-0.576,0.432-0.744
		c0.408-0.552,1.344-1.368,3.024-1.368c1.224,0,1.944,0.336,2.376,0.6c1.752,1.104,2.425,3.48,2.425,5.4
		C549.221,211.996,549.196,212.668,548.98,213.581z M547.444,209.404c-0.696-2.185-2.376-2.497-3.264-2.497
		c-0.505,0-1.057,0.12-1.488,0.36c-0.865,0.48-1.369,1.464-1.561,2.376c-0.12,0.6-0.145,1.176-0.168,1.776
		c-0.049,1.44,0.023,3.096,1.248,4.104c0.768,0.648,1.607,0.672,1.992,0.672c2.641,0,3.553-2.568,3.553-4.776
		C547.757,211.06,547.732,210.292,547.444,209.404z"/>
	<path d="M560.164,217.3v-2.063c-0.192,0.432-0.336,0.672-0.456,0.84c-1.056,1.464-2.592,1.488-3.191,1.488
		c-0.193,0-0.769-0.024-1.345-0.217c-1.032-0.336-1.849-1.176-2.185-2.208c-0.24-0.792-0.312-1.872-0.312-3.672v-5.617h1.44v5.929
		c0,1.393,0.023,2.137,0.191,2.784c0.192,0.696,0.696,1.681,2.377,1.681c0.576,0,1.8-0.024,2.711-1.272
		c0.865-1.177,0.769-2.712,0.769-4.104v-5.017h1.417V217.3H560.164z"/>
	<path d="M565.756,217.3v-16.945h1.44V217.3H565.756z"/>
	<path d="M578.812,216.7c-0.455-0.455-0.479-0.936-0.504-1.488c-0.144,0.361-0.336,0.697-0.6,0.984
		c-0.456,0.528-1.656,1.345-3.457,1.345c-1.463,0-2.256-0.505-2.735-0.984c-0.288-0.288-0.864-1.032-0.864-2.136
		c0-0.336,0.048-1.104,0.624-1.801c0.864-1.056,2.28-1.392,3.528-1.752c0.721-0.192,1.439-0.408,2.16-0.552l1.344-0.288v-0.6
		c0-0.432,0.024-0.672-0.119-1.104c-0.24-0.744-0.889-1.536-2.617-1.512c-1.463,0-2.207,0.408-2.592,0.984
		c-0.359,0.552-0.408,1.152-0.432,1.776l-1.561-0.264c0.049-0.24,0.191-1.224,0.672-1.992c0.528-0.792,1.656-1.752,3.816-1.752
		c1.152,0,2.713,0.288,3.504,1.224c0.769,0.912,0.697,2.136,0.697,3.24v3.672c0,1.104-0.024,1.873,0.383,2.209
		c0.361,0.287,0.937,0.264,1.32,0.264v1.128C580.036,217.3,579.292,217.18,578.812,216.7z M578.308,211.252l-0.72,0.192
		c-2.231,0.6-4.152,1.057-4.849,1.561c-0.432,0.312-0.72,0.84-0.72,1.392c0,0.384,0.168,0.72,0.216,0.815
		c0.528,1.057,1.824,1.08,2.088,1.08c1.393,0,3.097-0.84,3.673-2.16c0.216-0.479,0.312-0.959,0.312-2.016V211.252z"/>
	<path d="M589.492,207.003c-0.288-0.048-0.552-0.072-0.888-0.072c-1.753,0-2.833,1.032-3.097,2.712
		c-0.097,0.6-0.12,1.368-0.12,2.712v4.944h-1.416v-11.449h1.416v1.824c0.072-0.192,0.191-0.408,0.312-0.576
		c0.144-0.216,0.623-0.816,1.344-1.128c0.312-0.144,0.816-0.288,1.632-0.288c0.192,0,0.433,0,0.841,0.048L589.492,207.003z"/>
	<path d="M612.748,217.684l-2.136-1.968c-0.793,0.792-2.257,2.017-4.992,2.017c-2.425,0-3.793-0.912-4.537-1.561
		c-2.736-2.353-2.809-6.265-2.809-7.177c0-3.457,1.248-5.665,2.16-6.721c0.192-0.216,0.648-0.72,1.297-1.152
		c1.199-0.84,2.568-1.2,4.032-1.2c1.704,0,3.192,0.456,4.44,1.584c2.664,2.4,2.712,6.192,2.712,7.129
		c0,0.984-0.048,3.432-1.44,5.857l2.281,2.111L612.748,217.684z M609.916,203.571c-0.216-0.336-0.864-1.248-1.921-1.776
		c-0.408-0.192-1.176-0.48-2.304-0.48c-1.345,0-2.185,0.384-2.664,0.672c-2.304,1.392-3.072,4.489-3.072,6.961
		c0,0.6,0.048,3.191,1.344,5.16c0.288,0.432,0.576,0.744,0.96,1.08c0.528,0.48,1.584,1.176,3.361,1.176
		c0.863,0,2.832-0.144,4.224-2.111c1.032-1.465,1.416-3.505,1.44-5.257C611.284,208.324,611.284,205.635,609.916,203.571z"/>
	<path d="M623.955,217.3v-2.063c-0.192,0.432-0.336,0.672-0.456,0.84c-1.056,1.464-2.592,1.488-3.191,1.488
		c-0.193,0-0.769-0.024-1.345-0.217c-1.032-0.336-1.849-1.176-2.185-2.208c-0.24-0.792-0.312-1.872-0.312-3.672v-5.617h1.44v5.929
		c0,1.393,0.023,2.137,0.191,2.784c0.192,0.696,0.696,1.681,2.377,1.681c0.576,0,1.8-0.024,2.711-1.272
		c0.865-1.177,0.769-2.712,0.769-4.104v-5.017h1.417V217.3H623.955z"/>
	<path d="M638.38,215.764c-0.625,0.744-1.752,1.824-4.081,1.824c-0.407,0-1.56-0.023-2.64-0.6c-2.736-1.416-2.832-4.777-2.832-5.521
		c0-0.384,0-1.32,0.359-2.328c0.744-2.16,2.616-3.576,4.92-3.576c0.697,0,2.354,0.144,3.673,1.632
		c0.912,1.032,1.488,2.64,1.488,4.032v0.36h-8.881c-0.024,0.936,0.097,1.512,0.216,1.92c0.24,0.912,1.057,2.809,3.672,2.783
		c1.009,0,2.593-0.239,3.673-2.399l1.32,0.384C639.147,214.516,638.859,215.165,638.38,215.764z M634.083,206.835
		c-1.992,0-2.928,1.368-3.24,1.992c-0.216,0.48-0.359,1.08-0.432,1.584h7.225C637.3,207.459,635.331,206.835,634.083,206.835z"/>
	<path d="M650.212,215.596c-0.457,0.864-1.609,1.992-3.913,1.992c-0.696,0-2.567-0.096-3.841-1.729
		c-0.359-0.455-0.551-0.863-0.768-1.344l1.393-0.48c0.191,0.793,1.056,2.256,3.191,2.256c1.08,0,1.777-0.312,2.113-0.575
		c0.504-0.384,0.815-1.056,0.815-1.656c0-0.36-0.12-0.72-0.312-1.009c-0.36-0.504-0.937-0.791-2.16-1.056
		c-1.129-0.264-2.904-0.456-3.721-1.44c-0.385-0.48-0.624-1.176-0.6-1.8c0-0.36,0.119-1.464,0.983-2.232
		c0.769-0.72,2.112-0.96,3.12-0.96c0.336,0,1.752,0,2.809,0.744c0.889,0.625,1.152,1.464,1.248,1.848l-1.344,0.36
		c-0.264-1.32-1.633-1.704-2.785-1.704c-0.936,0-1.56,0.216-1.871,0.432c-0.097,0.048-0.336,0.24-0.504,0.504
		c-0.24,0.408-0.265,0.816-0.265,0.984c0,1.344,1.416,1.656,2.4,1.848l1.2,0.24c1.031,0.216,1.992,0.6,2.616,1.487
		c0.528,0.721,0.552,1.417,0.552,1.753C650.571,214.299,650.548,214.948,650.212,215.596z"/>
	<path d="M657.29,217.516c-0.119,0-0.264,0-0.383-0.023c-0.312-0.024-1.177-0.096-1.513-1.008c-0.192-0.505-0.168-1.729-0.168-2.281
		v-7.152h-2.4v-1.2h2.4v-4.872h1.368v4.872h2.52v1.2h-2.52v6.312c0,0.408,0,0.816,0,1.225c-0.023,0.672-0.023,1.68,0.936,1.68
		c0.576,0,1.152-0.408,1.584-0.72v1.44C658.803,217.204,658.227,217.516,657.29,217.516z"/>
	<path d="M661.874,203.163v-2.184h1.393v2.184H661.874z M661.874,217.3v-11.449h1.393V217.3H661.874z"/>
	<path d="M676.803,213.82c-0.72,2.304-2.521,3.769-4.944,3.769c-0.792,0-2.616-0.145-3.96-1.92c-0.505-0.696-1.177-1.92-1.177-3.96
		c0-0.504,0.024-1.632,0.528-2.904c1.128-2.904,3.577-3.24,4.704-3.24c1.32,0,2.4,0.384,3.361,1.272
		c1.271,1.224,1.775,2.976,1.8,4.68C677.115,211.9,677.115,212.812,676.803,213.82z M671.931,206.763
		c-0.36,0-1.248,0.048-2.064,0.648c-0.888,0.672-1.632,1.92-1.632,4.296c0,0.431-0.048,2.736,1.513,3.96
		c0.359,0.287,1.031,0.672,2.135,0.672c1.681,0,3.697-1.057,3.721-4.681C675.651,207.939,673.755,206.763,671.931,206.763z"/>
	<path d="M688.058,217.3v-5.953c0-1.536,0-2.448-0.264-3.12c-0.24-0.6-0.647-0.864-0.863-0.984c-0.648-0.384-1.297-0.36-1.561-0.36
		s-0.889,0.024-1.512,0.312c-0.84,0.408-1.513,1.32-1.729,2.184c-0.12,0.552-0.145,1.536-0.145,2.904v5.017h-1.416v-11.449h1.416
		v2.041c0.097-0.288,0.265-0.744,0.816-1.272c0.456-0.432,1.272-1.008,2.784-1.008c2.136,0,3.12,1.176,3.48,1.968
		c0.433,0.912,0.408,1.824,0.408,3.768v5.953H688.058z"/>
	<path d="M701.21,215.596c-0.455,0.864-1.607,1.992-3.912,1.992c-0.695,0-2.568-0.096-3.84-1.729
		c-0.36-0.455-0.553-0.863-0.769-1.344l1.392-0.48c0.193,0.793,1.057,2.256,3.193,2.256c1.08,0,1.775-0.312,2.111-0.575
		c0.504-0.384,0.816-1.056,0.816-1.656c0-0.36-0.12-0.72-0.312-1.009c-0.359-0.504-0.936-0.791-2.16-1.056
		c-1.127-0.264-2.904-0.456-3.72-1.44c-0.384-0.48-0.624-1.176-0.601-1.8c0-0.36,0.121-1.464,0.984-2.232
		c0.768-0.72,2.112-0.96,3.121-0.96c0.336,0,1.752,0,2.808,0.744c0.888,0.625,1.152,1.464,1.248,1.848l-1.345,0.36
		c-0.264-1.32-1.631-1.704-2.783-1.704c-0.937,0-1.561,0.216-1.873,0.432c-0.096,0.048-0.336,0.24-0.504,0.504
		c-0.24,0.408-0.264,0.816-0.264,0.984c0,1.344,1.416,1.656,2.4,1.848l1.2,0.24c1.032,0.216,1.991,0.6,2.616,1.487
		c0.527,0.721,0.552,1.417,0.552,1.753C701.57,214.299,701.546,214.948,701.21,215.596z"/>
</g>
<g>
	<path d="M-378.632-143.307l-1.944-5.112h-7.584l-1.944,5.112h-1.776l6.913-16.945h1.344l6.745,16.945H-378.632z M-384.321-158.38
		l-3.312,8.665h6.577L-384.321-158.38z"/>
	<path d="M-366.681-145.011c-0.456,0.864-1.608,1.992-3.913,1.992c-0.696,0-2.568-0.096-3.84-1.729
		c-0.36-0.455-0.552-0.863-0.768-1.344l1.392-0.48c0.192,0.793,1.056,2.256,3.192,2.256c1.08,0,1.776-0.312,2.112-0.575
		c0.504-0.384,0.816-1.056,0.816-1.656c0-0.36-0.12-0.72-0.312-1.009c-0.36-0.504-0.936-0.791-2.16-1.056
		c-1.128-0.264-2.904-0.456-3.72-1.44c-0.384-0.48-0.624-1.176-0.6-1.8c0-0.36,0.12-1.464,0.984-2.232
		c0.768-0.72,2.112-0.96,3.121-0.96c0.336,0,1.752,0,2.808,0.744c0.888,0.625,1.152,1.464,1.248,1.848l-1.344,0.36
		c-0.264-1.32-1.632-1.704-2.784-1.704c-0.936,0-1.56,0.216-1.872,0.432c-0.096,0.048-0.336,0.24-0.504,0.504
		c-0.24,0.408-0.264,0.816-0.264,0.984c0,1.344,1.416,1.656,2.4,1.848l1.2,0.24c1.032,0.216,1.992,0.6,2.616,1.487
		c0.528,0.721,0.552,1.417,0.552,1.753C-366.321-146.308-366.345-145.659-366.681-145.011z"/>
	<path d="M-354.417-143.307l-4.368-5.929l-2.448,2.328v3.601h-1.392v-16.945h1.392v11.521l6.433-6.025h1.776l-4.776,4.561
		l5.112,6.889H-354.417z"/>
	<path d="M-335.793-143.907c-0.456-0.455-0.48-0.936-0.504-1.488c-0.144,0.361-0.336,0.697-0.6,0.984
		c-0.456,0.528-1.656,1.345-3.457,1.345c-1.464,0-2.256-0.505-2.736-0.984c-0.288-0.288-0.864-1.032-0.864-2.136
		c0-0.336,0.048-1.104,0.624-1.801c0.864-1.056,2.28-1.392,3.528-1.752c0.72-0.192,1.44-0.408,2.16-0.552l1.344-0.288v-0.6
		c0-0.432,0.024-0.672-0.12-1.104c-0.24-0.744-0.888-1.536-2.616-1.512c-1.464,0-2.208,0.408-2.592,0.984
		c-0.36,0.552-0.408,1.152-0.432,1.776l-1.56-0.264c0.048-0.24,0.192-1.224,0.672-1.992c0.528-0.792,1.656-1.752,3.816-1.752
		c1.152,0,2.712,0.288,3.504,1.224c0.768,0.912,0.696,2.136,0.696,3.24v3.672c0,1.104-0.024,1.873,0.384,2.209
		c0.36,0.287,0.936,0.264,1.32,0.264v1.128C-334.569-143.307-335.313-143.427-335.793-143.907z M-336.297-149.355l-0.72,0.192
		c-2.232,0.6-4.152,1.057-4.848,1.561c-0.432,0.312-0.72,0.84-0.72,1.392c0,0.384,0.168,0.72,0.216,0.815
		c0.528,1.057,1.824,1.08,2.088,1.08c1.392,0,3.096-0.84,3.672-2.16c0.216-0.479,0.312-0.959,0.312-2.016V-149.355z"/>
	<path d="M-323.146-143.307v-5.953c0-1.536,0-2.448-0.264-3.12c-0.24-0.6-0.648-0.864-0.864-0.984
		c-0.648-0.384-1.296-0.36-1.56-0.36s-0.888,0.024-1.512,0.312c-0.84,0.408-1.512,1.32-1.728,2.184
		c-0.12,0.552-0.144,1.536-0.144,2.904v5.017h-1.416v-11.449h1.416v2.041c0.096-0.288,0.264-0.744,0.816-1.272
		c0.456-0.432,1.272-1.008,2.784-1.008c2.136,0,3.121,1.176,3.48,1.968c0.432,0.912,0.408,1.824,0.408,3.768v5.953H-323.146z"/>
	<path d="M-310.594-143.307v-16.945h11.065v1.464h-9.457v6.049h8.569v1.488h-8.569v6.457h10.057v1.488H-310.594z"/>
	<path d="M-288.585-143.307l-3.36-4.872l-3.48,4.872h-1.512l4.201-5.953l-3.865-5.497h1.656l3,4.369l3.096-4.369h1.512l-3.84,5.497
		l4.2,5.953H-288.585z"/>
	<path d="M-274.642-147.026c-0.216,0.84-1.224,3.984-4.561,3.984c-1.8,0-2.76-0.984-3.144-1.585
		c-0.12-0.168-0.168-0.264-0.312-0.601v7.994h-1.392v-17.522h1.392v1.873c0.168-0.384,0.288-0.576,0.432-0.744
		c0.408-0.552,1.344-1.368,3.024-1.368c1.224,0,1.944,0.336,2.376,0.6c1.752,1.104,2.424,3.48,2.424,5.4
		C-274.401-148.611-274.426-147.938-274.642-147.026z M-276.178-151.203c-0.696-2.185-2.376-2.497-3.264-2.497
		c-0.504,0-1.056,0.12-1.488,0.36c-0.864,0.48-1.368,1.464-1.56,2.376c-0.12,0.6-0.144,1.176-0.168,1.776
		c-0.048,1.44,0.024,3.096,1.248,4.104c0.768,0.648,1.608,0.672,1.992,0.672c2.64,0,3.552-2.568,3.552-4.776
		C-275.866-149.547-275.89-150.315-276.178-151.203z"/>
	<path d="M-262.138-144.843c-0.624,0.744-1.752,1.824-4.081,1.824c-0.408,0-1.56-0.023-2.64-0.6
		c-2.736-1.416-2.832-4.777-2.832-5.521c0-0.384,0-1.32,0.36-2.328c0.744-2.16,2.616-3.576,4.92-3.576
		c0.696,0,2.353,0.144,3.672,1.632c0.912,1.032,1.488,2.64,1.488,4.032v0.36h-8.881c-0.024,0.936,0.096,1.512,0.216,1.92
		c0.24,0.912,1.056,2.809,3.672,2.783c1.008,0,2.592-0.239,3.672-2.399l1.32,0.384C-261.37-146.091-261.658-145.442-262.138-144.843
		z M-266.434-153.771c-1.992,0-2.928,1.368-3.24,1.992c-0.216,0.48-0.36,1.08-0.432,1.584h7.225
		C-263.218-153.147-265.186-153.771-266.434-153.771z"/>
	<path d="M-252.322-153.604c-0.288-0.048-0.552-0.072-0.888-0.072c-1.752,0-2.833,1.032-3.096,2.712
		c-0.096,0.6-0.12,1.368-0.12,2.712v4.944h-1.416v-11.449h1.416v1.824c0.072-0.192,0.192-0.408,0.312-0.576
		c0.144-0.216,0.624-0.816,1.344-1.128c0.312-0.144,0.816-0.288,1.632-0.288c0.192,0,0.432,0,0.84,0.048L-252.322-153.604z"/>
	<path d="M-246.707-143.091c-0.12,0-0.264,0-0.384-0.023c-0.312-0.024-1.176-0.096-1.512-1.008
		c-0.192-0.505-0.168-1.729-0.168-2.281v-7.152h-2.4v-1.2h2.4v-4.872h1.368v4.872h2.52v1.2h-2.52v6.312c0,0.408,0,0.816,0,1.225
		c-0.024,0.672-0.024,1.68,0.936,1.68c0.576,0,1.152-0.408,1.584-0.72v1.44C-245.195-143.403-245.771-143.091-246.707-143.091z"/>
</g>
<text transform="matrix(1 0 0 1 -419.6245 219.9712)" fill="#FFFFFF" stroke="#FFFFFF" stroke-width="2" stroke-linecap="round" stroke-linejoin="round" stroke-miterlimit="10" font-family="'Calibri-Italic'" font-size="50.9781" letter-spacing="-1">mentex</text>
<rect x="-639.499" y="-332.287" fill="none" stroke="#FFFFFF" stroke-miterlimit="10" width="1382.4" height="688.494"/>
<path fill="#06BFE8" d="M104.001,47.261c0,6.627-3.827,12-8.548,12H8.548c-4.721,0-8.548-5.373-8.548-12V12C0,5.373,3.827,0,8.548,0
	h86.905c4.721,0,8.548,5.373,8.548,12V47.261z"/>
<text transform="matrix(1 0 0 1 16.1309 42.5898)" fill="#FFFFFF" font-family="'Calibri-Italic'" font-size="48" letter-spacing="-1">Ask</text>
</svg>
